<svg version="1.0" xmlns="http://www.w3.org/2000/svg" width="248" height="248" viewBox="0 0 186 186"><path d="M13.6 55.6c-1.2 1.2-1.6 3.7-1.6 10.3 0 10 1.2 12.1 6.8 11.7 1.7-.1 3.8.1 4.4.5.7.4 1.8.3 2.5-.3.9-.7 1.3-.7 1.3.2 0 1 .3 1 1.5 0 1-.8 1.5-.9 1.5-.1 0 .7.8.8 2.4.1 1.9-.7 2.6-.5 3 .6.3.9.6 11.4.6 23.4 0 25.3-.1 25 8.4 25 2.8 0 5.8.6 6.5 1.2.9.8 1.2.9.7.1-.8-1.5 13.2-1.7 15.1-.1 1.1.8 1.2.7.7-.6-.4-1.1-.2-1.6.7-1.4.8.2 1.3-.3 1.2-1-.2-.6.2-1.2.9-1.2.6 0 .8-.3.5-.7-.4-.3-.1-1.3.6-2.1.6-.9.7-1.3.2-1-1 .6-1.3-41.7-.3-42.7.2-.3 1.8-.1 3.5.4 2.1.6 3.5.5 4.2-.2.9-.9 1.4-.9 2 .1.6.9 1.5 1 3.4.3 1.8-.7 2.7-.7 3 .2.3.9.8.9 2-.2 1.6-1.2 1.7.4 1.7 22.2 0 27-.1 26.7 8 26.7 2.9 0 5 .5 5.3 1.2.4 1 .6 1 .6 0 .1-.6 1.2-1.2 2.6-1.2 1.4 0 2.5.6 2.5 1.2 0 1 .2 1 .8.2 1-1.7 17.5-1.7 16.5-.1-.5.9-.3.9.8 0 .9-.7 6-1.1 13.9-1.1 6.9-.1 13.6-.3 14.9-.6 3.1-.7 7.8-5.1 8.5-8.2.5-1.7 1.2-2.2 2.7-1.9 1.2.3 1.8.1 1.5-.3-.4-.4-1.3-.7-1.9-.7-.7 0-1.3-.8-1.5-1.9-.3-1.3 0-1.6.9-1.1.8.6 1 .4.3-.6-.4-.8-1-5.2-1.2-9.9-.2-4.6-1-9.6-1.7-11-.9-1.8-1-3.1-.3-4.4.5-.9.9-6.6.8-12.4-.3-13.9-.3-14.1-1.1-13.6-.4.2-1-.4-1.4-1.5-.3-1-2.1-2.6-3.9-3.5-2.9-1.4-11.7-1.6-73.4-1.6-62.2 0-70.3.2-71.6 1.6zm117.8 22.2c.3.5-.1.9-.9.9s-1.2-.4-.9-.9c.3-.4.7-.8.9-.8.2 0 .6.4.9.8z"/><path d="M165.4 88.4c.1.8.5 1.8.8 2.2.4.3.5-.1.4-1-.1-.8-.5-1.8-.8-2.2-.4-.3-.5.1-.4 1zm-91.8 21.8c.3.5 1 .6 1.5.3 1.3-.9 1.1-1.2-.6-1.2-.8 0-1.2.4-.9.9zm90 13.6c-.3.5.1.9.9.9s1.2-.4.9-.9c-.3-.4-.7-.8-.9-.8-.2 0-.6.4-.9.8zm-92.1 1.3c-.4.6-.5 1.2-.2 1.5.2.3.7-.2 1-1.1.7-1.7.1-2-.8-.4z"/></svg>